HIERARCHY
ROOT Hips
{
     OFFSET 1.88212 96.90440 -13.34250
     CHANNELS 6 Xposition Yposition Zposition Zrotation Xrotation Yrotation
     JOINT Spine
     {
          OFFSET 0.00000 11.89050 0.00000
          CHANNELS 3 Zrotation Xrotation Yrotation
          JOINT Spine1
          {
               OFFSET -0.00000 25.65740 0.12766
               CHANNELS 3 Zrotation Xrotation Yrotation
               JOINT HEad
               {
                    OFFSET 0.00000 8.73416 0.01134
                    CHANNELS 3 Zrotation Xrotation Yrotation
                    End Site
                    {
                         OFFSET -0.29000 12.77420 2.51395
                    }
               }
               JOINT LeftShoulder1
               {
                    OFFSET 8.99000 -0.36225 -0.22000
                    CHANNELS 3 Zrotation Xrotation Yrotation
                    JOINT LeftArm
                    {
                         OFFSET 10.28270 -0.00338 0.32212
                         CHANNELS 3 Zrotation Xrotation Yrotation
                         JOINT LeftForeArm
                         {
                              OFFSET 32.76690 0.09914 -1.42434
                              CHANNELS 3 Zrotation Xrotation Yrotation
                              JOINT LeftHand
                              {
                                   OFFSET 27.56430 0.08536 1.02216
                                   CHANNELS 3 Zrotation Xrotation Yrotation
                                   End Site
                                   {
                                        OFFSET 16.74430 -0.60000 1.50291
                                   }
                              }
                         }
                    }
               }
               JOINT RightShoulder
               {
                    OFFSET -8.99000 -0.36225 -0.22000
                    CHANNELS 3 Zrotation Xrotation Yrotation
                    JOINT RightArm
                    {
                         OFFSET -10.28270 -0.00338 0.32212
                         CHANNELS 3 Zrotation Xrotation Yrotation
                         JOINT RightForeArm
                         {
                              OFFSET -32.89710 0.09914 -1.42434
                              CHANNELS 3 Zrotation Xrotation Yrotation
                              JOINT RightHand
                              {
                                   OFFSET -27.49210 0.08536 1.02216
                                   CHANNELS 3 Zrotation Xrotation Yrotation
                                   End Site
                                   {
                                        OFFSET -16.63120 -0.60000 1.50291
                                   }
                              }
                         }
                    }
               }
          }
     }
     JOINT LeftUpLeg
     {
          OFFSET 8.94580 -8.66707 0.10165
          CHANNELS 3 Zrotation Xrotation Yrotation
          JOINT LeftLeg
          {
               OFFSET 0.00000 -44.42270 1.37270
               CHANNELS 3 Zrotation Xrotation Yrotation
               JOINT LeftFoot
               {
                    OFFSET -0.25355 -42.09240 -1.46059
                    CHANNELS 3 Zrotation Xrotation Yrotation
                    JOINT LeftToes
                    {
                         OFFSET -0.04000 -4.41509 8.49910
                         CHANNELS 3 Zrotation Xrotation Yrotation
                         End Site
                         {
                              OFFSET 0.08000 -0.04745 9.77979
                         }
                    }
               }
          }
     }
     JOINT RightUpLeg
     {
          OFFSET -8.94580 -8.66707 0.10165
          CHANNELS 3 Zrotation Xrotation Yrotation
          JOINT RightLeg
          {
               OFFSET 0.00000 -44.42270 1.37270
               CHANNELS 3 Zrotation Xrotation Yrotation
               JOINT RightFoot
               {
                    OFFSET 0.25355 -42.09240 -1.46059
                    CHANNELS 3 Zrotation Xrotation Yrotation
                    JOINT RightToes
                    {
                         OFFSET 0.04000 -4.41509 8.49910
                         CHANNELS 3 Zrotation Xrotation Yrotation
                         End Site
                         {
                              OFFSET -0.08000 -0.13745 9.77979
                         }
                    }
               }
          }
     }
}
MOTION
Frames: 17
Frame Time: 0.01667
-801.46088 86.32435 -315.98047 -12.16515 -10.59182 -47.37348 1.25482 20.98624 -1.15813 -0.00473 0.00991 -0.00184 -5.98935 14.88105 17.82210 -0.92203 8.72523 0.98416 -128.41049 -70.15625 -102.74373 -40.30680 56.07561 -75.86681 16.99389 6.50499 -14.65834 13.45105 9.08272 -1.45164 80.85932 -0.22133 68.56242 11.51105 32.27821 105.62566 16.78938 11.92635 5.99123 16.51171 -13.48048 -10.44491 -19.39646 13.93486 59.40175 -16.56200 -0.00876 0.01326 26.89877 -0.81133 -53.24707 -33.91527 5.64425 30.18337 47.81712 22.40823 -50.07802 -30.00504 0.01439 0.00630 0.66021 -27.92355 16.45604 
-801.22235 86.68156 -315.42654 -12.18860 -10.56967 -47.17163 1.22228 21.09945 -1.12183 -0.00390 0.00926 -0.00186 -4.91078 14.68471 16.68719 -0.93729 8.65622 0.84986 -128.10947 -69.88913 -102.54745 -40.18130 56.15007 -75.92283 17.10919 6.53765 -14.64435 13.72145 9.00475 -1.52614 80.78092 -0.30858 68.74174 11.25957 32.29832 105.60561 16.70521 11.82172 6.07017 16.66073 -13.39412 -10.69771 -20.39222 13.91193 59.98168 -13.70273 -0.01397 0.01662 24.11717 -2.06223 -53.69721 -33.39577 5.62769 28.65873 46.82588 23.79013 -49.37152 -30.00456 0.01251 0.00761 2.05623 -29.74427 17.12734 
-800.95740 87.07704 -314.70627 -12.22285 -10.54558 -46.92818 1.17990 21.23703 -1.12485 -0.00312 0.00868 -0.00183 -3.94117 14.42821 15.64181 -0.95181 8.57290 0.77599 -127.93075 -69.58263 -102.42703 -40.09170 56.32079 -76.04275 17.25886 6.55550 -14.57829 13.99380 8.91794 -1.59324 80.70647 -0.43574 68.88596 11.10417 32.30474 105.63066 16.65290 11.68073 6.09126 16.78680 -13.16941 -10.99608 -21.47570 13.67141 60.71040 -10.70418 -0.01842 0.02006 21.31059 -3.43065 -54.29614 -32.88054 5.48242 27.18136 46.03856 25.08628 -48.68045 -30.00377 0.01084 0.00910 2.62122 -29.35461 18.10618 
-800.67780 87.49010 -313.86383 -12.26425 -10.52147 -46.64736 1.12480 21.39131 -1.15850 -0.00253 0.00820 -0.00182 -3.08324 14.12912 14.68840 -0.96732 8.48524 0.75061 -127.90898 -69.24625 -102.42989 -40.06209 56.56996 -76.19063 17.41126 6.59978 -14.48021 14.25109 8.83082 -1.65624 80.65833 -0.59786 68.99955 11.04025 32.30739 105.68870 16.61409 11.57235 6.13514 16.88737 -12.83302 -11.32849 -22.59277 13.24899 61.53900 -7.60329 -0.02175 0.02298 18.49244 -4.86313 -54.99659 -32.36120 5.22763 25.76105 45.45037 26.26149 -47.96148 -30.00301 0.00889 0.00973 3.83432 -30.67437 18.77020 
-800.39270 87.90187 -312.93924 -12.30845 -10.49831 -46.33737 1.05320 21.55598 -1.21157 -0.00208 0.00785 -0.00184 -2.33825 13.80245 13.82676 -0.98223 8.40105 0.75876 -128.07472 -68.89365 -102.59000 -40.12110 56.87975 -76.32438 17.56659 6.61934 -14.34190 14.48010 8.75062 -1.71145 80.65122 -0.79291 69.08847 11.05495 32.31537 105.76678 16.60303 11.45723 6.13021 16.96387 -12.41153 -11.68147 -23.69580 12.68249 62.42285 -4.43880 -0.02382 0.02507 15.67941 -6.33165 -55.75527 -31.83262 4.88476 24.40621 45.02593 27.27851 -47.19972 -30.00232 0.00755 0.00949 4.70786 -31.57985 19.21588 
-800.11066 88.29669 -311.96811 -12.35013 -10.47627 -46.00986 0.95995 21.72578 -1.27084 -0.00172 0.00762 -0.00192 -1.70627 13.45991 13.05583 -0.99421 8.32656 0.78573 -128.44434 -68.53924 -102.92392 -40.29452 57.23594 -76.40555 17.70244 6.64679 -14.19592 14.67167 8.68328 -1.75449 80.69300 -1.01487 69.15921 11.12836 32.33377 105.85682 16.60034 11.37399 6.12678 17.01950 -11.93101 -12.03972 -24.74697 12.01034 63.32518 -1.24787 -0.02468 0.02617 12.88107 -7.82254 -56.53600 -31.29372 4.47991 23.12443 44.68581 28.10163 -46.39614 -30.00175 0.00717 0.00852 18.84062 -45.30654 26.96129 
-799.83752 88.64623 -310.99844 -12.37545 -10.45019 -45.68871 0.83009 21.88936 -1.30910 -0.00151 0.00751 -0.00203 -1.18451 13.10818 12.37521 -0.99698 8.26497 0.81717 -129.03850 -68.19769 -103.45155 -40.60595 57.63111 -76.40005 17.82195 6.66625 -14.04326 14.81963 8.63142 -1.78158 80.78864 -1.25052 69.22012 11.23727 32.36293 105.94910 16.61059 11.29372 6.08402 17.06674 -11.43601 -12.37115 -25.72518 11.27511 64.22250 1.93803 -0.02457 0.02609 10.09772 -9.30527 -57.32275 -30.77632 4.21384 21.93060 43.79510 28.86548 -45.27840 -29.59003 0.00539 -0.00099 11.30285 -38.94907 21.81742 
-799.57703 88.92615 -310.07388 -12.37434 -10.41022 -45.38939 0.65523 22.03773 -1.30946 -0.00144 0.00750 -0.00215 -0.76714 12.74903 11.78564 -0.98034 8.21470 0.84010 -129.89001 -67.88298 -104.20475 -41.07714 58.06704 -76.27832 17.91587 6.70767 -13.89521 14.91983 8.59241 -1.79095 80.94214 -1.47937 69.28143 11.36060 32.39985 106.02934 16.62094 11.23122 6.03372 17.11873 -10.95875 -12.65390 -26.61257 10.51136 65.09373 5.08749 -0.02375 0.02498 7.32156 -10.73074 -58.11044 -30.27938 4.17448 20.82602 42.36759 29.49828 -43.79336 -28.78969 0.00360 -0.00495 14.70191 -42.81490 23.31097 
-799.33313 89.13094 -309.21619 -12.33958 -10.35169 -45.12790 0.42450 22.16798 -1.25604 -0.00152 0.00755 -0.00227 -0.44732 12.38210 11.28827 -0.93548 8.17014 0.84551 -131.02190 -67.60505 -105.20903 -41.71923 58.54802 -76.02070 17.99159 6.76584 -13.74346 14.97292 8.55911 -1.78548 81.15149 -1.67725 69.35298 11.48421 32.43988 106.07911 16.63606 11.16780 5.95242 17.18189 -10.53233 -12.86885 -27.40214 9.75673 65.92671 8.17718 -0.02242 0.02310 4.54579 -12.03788 -58.89326 -29.78790 4.36247 19.81250 40.55260 29.87738 -42.01610 -27.74656 0.00270 -0.00754 12.97586 -41.53029 21.46234 
-799.10333 89.26376 -308.43860 -12.28690 -10.28373 -44.90060 0.14506 22.27511 -1.15409 -0.00114 0.00200 -0.00134 -0.14362 12.02720 10.82015 -0.84265 8.14144 0.89290 -132.13602 -67.32670 -106.18147 -42.45822 59.00841 -75.71584 18.05593 6.83740 -13.58424 14.99720 8.54109 -1.83685 81.41497 -1.78645 69.44670 11.59364 32.48484 106.12391 16.64763 11.10153 5.85832 17.24254 -10.18799 -13.03934 -28.22891 8.95405 66.76493 11.32041 -0.02220 0.02376 1.80279 -13.30504 -59.65677 -29.26917 4.77771 18.83931 38.29223 30.13675 -39.94426 -26.39294 0.00177 -0.01093 11.93467 -41.03372 20.10561 
-798.89026 89.34309 -307.73663 -12.21200 -10.19758 -44.70803 -0.18130 22.36105 -1.00350 -0.00127 0.00218 -0.00090 0.14454 11.66272 10.38454 -0.68154 8.10771 0.91672 -133.30429 -67.05803 -107.21075 -43.25986 59.42588 -75.34070 18.09935 6.92855 -13.41963 14.99176 8.51814 -1.88240 81.73315 -1.84986 69.57327 11.69254 32.52843 106.12460 16.66764 11.02856 5.74879 17.31363 -9.93248 -13.15941 -29.04148 8.13632 67.59397 14.47839 -0.02093 0.02369 -0.93053 -14.46961 -60.40870 -28.75221 5.41419 17.90350 35.89584 29.63140 -37.47911 -25.32275 0.00413 -0.01370 11.19919 -40.69382 18.79891 
-798.69763 89.39503 -307.10095 -12.11474 -10.08555 -44.54681 -0.54640 22.42738 -0.80992 -0.00127 0.00240 -0.00074 0.41529 11.28782 9.98213 -0.46154 8.06671 0.89727 -134.51199 -66.79774 -108.30016 -44.08667 59.79338 -74.90637 18.11597 7.04101 -13.25917 14.96644 8.48654 -1.90737 82.09085 -1.87967 69.73341 11.78233 32.56749 106.06713 16.70339 10.95289 5.63048 17.40627 -9.75192 -13.22932 -29.80892 7.32920 68.39700 17.61460 -0.01948 0.02282 -3.66876 -15.49422 -61.14918 -28.27235 6.25769 17.00216 33.51670 28.47932 -34.74958 -24.50522 0.00337 -0.01344 13.08768 -44.64957 16.64490 
-798.52625 89.66545 -306.54965 -12.04949 -9.94914 -44.40650 -0.89779 22.33787 -0.57496 0.00008 -0.00114 -0.00122 0.93812 10.82506 9.10230 -0.11272 7.85139 0.94559 -132.17865 -65.81911 -106.86077 -44.26762 59.78434 -75.74651 15.85919 5.65695 -17.38975 11.47047 7.45166 0.16393 85.50818 -3.90225 69.83321 11.26741 31.81637 105.63602 15.94839 15.73124 3.03577 17.51794 -9.53969 -13.27128 -30.87146 6.31836 69.77193 21.01457 -0.03640 0.03481 -7.00868 -16.62951 -62.62247 -27.74236 7.24874 16.08036 31.56154 27.78883 -32.17352 -23.66537 -0.00646 -0.01037 13.01359 -41.61744 14.98679 
-798.43555 89.93573 -306.08670 -12.03676 -9.79507 -44.25878 -1.21620 22.11098 -0.30313 0.00083 -0.00234 -0.00186 1.72503 10.27938 7.74314 0.31990 7.55605 1.10319 -127.13220 -63.97344 -103.65839 -43.53226 59.43470 -77.96019 13.53630 3.96898 -23.22874 5.98420 5.72321 3.83749 90.29687 -7.86371 70.29911 10.09243 30.21445 104.90808 15.40514 22.12016 -1.20797 17.71641 -9.25457 -13.30292 -32.03944 5.14873 71.64694 24.54038 -0.05015 0.04871 -10.79894 -17.77737 -64.81114 -27.00653 8.11109 14.81804 29.72626 27.74599 -29.50082 -22.84122 -0.00781 -0.00638 12.05739 -34.62013 13.86101 
-798.41736 90.20509 -305.71561 -12.09048 -9.63890 -44.07924 -1.49850 21.76910 0.00487 0.00137 -0.00243 -0.00175 2.77845 9.65569 5.90023 0.76657 7.27231 1.38241 -120.40804 -61.10350 -99.72351 -41.72514 58.71497 -81.54630 12.35666 2.53760 -29.36255 -0.37190 3.56733 8.92032 95.09571 -13.78923 71.35944 8.18003 27.63604 103.90873 15.90336 28.32455 -6.99373 18.01538 -8.88143 -13.34829 -32.89220 4.04078 73.37681 27.83575 -0.04350 0.04478 -14.73419 -18.48256 -67.11811 -26.11216 8.73716 13.24036 27.98881 28.26711 -26.67370 -22.06311 -0.00832 -0.00432 10.94842 -25.33625 13.32057 
-798.50122 90.55742 -305.40695 -12.40352 -9.51831 -43.70715 -1.63814 21.16475 0.44564 -0.00146 0.00319 0.00392 4.77872 8.72447 2.37225 0.64976 7.23496 2.04794 -108.80799 -55.26765 -94.30389 -36.70992 56.56773 -89.34584 17.17287 5.78780 -14.88819 -0.61230 4.19235 9.65008 89.88414 -16.21479 73.90486 3.68373 21.12346 101.09698 19.32168 30.39953 -16.32848 18.35650 -8.26676 -13.58799 -33.32494 3.05617 74.77128 30.80292 -0.03572 0.03447 -18.58983 -18.39135 -69.25963 -24.61673 8.15733 10.65540 30.19852 33.19505 -24.33889 -17.34098 -0.09898 0.17991 3.75719 -14.27964 12.35196 
-798.71765 91.04958 -305.14148 -14.32885 -9.54797 -41.78081 -0.14491 21.41135 -0.65385 -0.00108 0.00904 0.00225 7.50372 7.37295 -2.66205 0.35704 7.70867 2.55291 -97.06009 -47.40138 -91.01512 -30.25327 52.99284 -98.65267 18.65257 6.50133 -11.02536 -0.42666 5.26416 10.27454 81.49049 -18.43003 74.35452 -2.81027 13.11436 96.22984 22.29868 29.23788 -20.53556 19.44037 -7.01631 -15.85751 -33.36047 2.18516 75.84659 33.46208 -0.03010 0.02468 -22.08242 -18.04399 -71.00955 -21.67416 7.75551 6.13205 34.47688 40.75856 -21.83580 -16.07054 -0.05174 0.10345 1.98249 -5.46956 9.63095 
